<?xml version="1.0" encoding="UTF-8" ?>
<svg xmlns="http://www.w3.org/2000/svg" xmlns:xlink="http://www.w3.org/1999/xlink"
     xmlns:ev="http://www.w3.org/2001/xml-events" version="1.1" baseProfile="full" width="170" height="128"
     overflow="hidden" skitchDocumentType="3" skitchVisibleWidth="160.000000" skitchVisibleHeight="120.000000"
     skitchCustomColor="rgb(75,99,255)" skitchCustomColorAlpha="0.000000" skitchBrushColor="rgb(75,99,255)"
     skitchBrushColorAlpha="0.000000" skitchBrushSize="1.500000" skitchTool="7">
  <rect width="170" height="128" x="0" y="0" fill="rgb(75,99,255)" opacity="0.00"/>
  <path
    d="M3.695 4.455 C3.695 3.991 4.069 3.616 4.532 3.616 C29.323 3.616 54.115 3.616 78.907 3.616 C79.369 3.616 79.743 3.991 79.743 4.455 C79.744 17.611 79.744 30.767 79.743 43.922 C79.743 44.386 79.369 44.763 78.907 44.763 C54.115 44.763 29.323 44.763 4.532 44.763 C4.069 44.763 3.695 44.386 3.695 43.922 C3.695 30.767 3.695 17.611 3.695 4.455 zM5.369 5.296 C5.369 17.891 5.369 30.486 5.369 43.083 C29.602 43.083 53.836 43.083 78.069 43.083 C78.069 30.486 78.069 17.891 78.069 5.296 C53.836 5.296 29.602 5.296 5.369 5.296 z"
    fill="rgb(25,119,255)"/>
  <path
    d="M29.195 19.389 C29.195 18.925 29.569 18.549 30.032 18.549 C51.282 18.549 72.532 18.549 93.782 18.549 C94.244 18.549 94.619 18.925 94.619 19.389 C94.619 30.055 94.619 40.722 94.619 51.389 C94.619 51.853 94.244 52.229 93.782 52.229 C72.532 52.229 51.282 52.229 30.032 52.229 C29.569 52.229 29.195 51.853 29.195 51.389 C29.195 40.722 29.195 30.055 29.195 19.389 zM30.868 20.229 C30.868 30.336 30.868 40.443 30.868 50.549 C51.560 50.549 72.252 50.549 92.944 50.549 C92.944 40.443 92.944 30.336 92.944 20.229 C72.252 20.229 51.560 20.229 30.868 20.229 z"
    fill="rgb(25,119,255)"/>
  <path
    d="M56.820 22.589 C56.820 22.125 57.194 21.748 57.657 21.748 C78.907 21.749 100.157 21.749 121.407 21.748 C121.869 21.748 122.244 22.125 122.244 22.589 C122.244 36.455 122.244 50.322 122.244 64.189 C122.244 64.653 121.869 65.029 121.407 65.029 C100.157 65.029 78.907 65.029 57.657 65.029 C57.194 65.029 56.820 64.653 56.820 64.189 C56.820 50.322 56.820 36.455 56.820 22.589 zM58.493 23.429 C58.494 36.736 58.494 50.043 58.493 63.349 C79.185 63.349 99.878 63.349 120.569 63.349 C120.569 50.043 120.569 36.736 120.569 23.429 C99.878 23.429 79.185 23.429 58.493 23.429 z"
    fill="rgb(25,119,255)"/>
  <path
    d="M94.007 32.189 C94.007 31.725 94.382 31.349 94.844 31.349 C108.657 31.349 122.469 31.349 136.282 31.349 C136.744 31.349 137.118 31.725 137.118 32.189 C137.118 41.434 137.118 50.677 137.118 59.922 C137.118 60.386 136.744 60.763 136.282 60.763 C122.469 60.763 108.657 60.763 94.844 60.763 C94.382 60.763 94.007 60.386 94.007 59.922 C94.007 50.677 94.007 41.434 94.007 32.189 zM95.680 33.029 C95.680 41.713 95.680 50.398 95.680 59.083 C108.935 59.083 122.191 59.083 135.444 59.083 C135.444 50.398 135.444 41.713 135.444 33.029 C122.191 33.029 108.935 33.029 95.680 33.029 z"
    fill="rgb(25,119,255)"/>
  <path
    d="M124.819 53.522 C124.819 53.058 125.194 52.683 125.657 52.683 C130.260 52.683 134.865 52.683 139.469 52.683 C139.931 52.683 140.305 53.058 140.305 53.522 C140.305 68.100 140.305 82.677 140.305 97.255 C140.305 97.719 139.931 98.096 139.469 98.096 C134.865 98.096 130.260 98.096 125.657 98.096 C125.194 98.096 124.819 97.719 124.819 97.255 C124.819 82.677 124.819 68.100 124.819 53.522 zM126.493 54.363 C126.494 68.380 126.494 82.398 126.493 96.415 C130.540 96.415 134.586 96.415 138.632 96.415 C138.632 82.398 138.632 68.380 138.632 54.363 C134.586 54.363 130.540 54.363 126.493 54.363 z"
    fill="rgb(25,119,255)"/>
  <path
    d="M134.382 89.789 C134.382 89.325 134.757 88.948 135.219 88.948 C143.719 88.949 152.219 88.949 160.719 88.948 C161.181 88.948 161.555 89.325 161.555 89.789 C161.556 96.900 161.556 104.011 161.555 111.122 C161.555 111.586 161.181 111.963 160.719 111.963 C152.219 111.963 143.719 111.963 135.219 111.963 C134.757 111.963 134.382 111.586 134.382 111.122 C134.382 104.011 134.382 96.900 134.382 89.789 zM136.055 90.629 C136.056 97.180 136.056 103.731 136.055 110.282 C143.997 110.282 151.940 110.282 159.882 110.282 C159.882 103.731 159.882 97.180 159.882 90.629 C151.940 90.629 143.997 90.629 136.055 90.629 z"
    fill="rgb(25,119,255)"/>
  <path
    d="M146.069 106.855 C146.069 106.391 146.444 106.015 146.907 106.015 C150.448 106.015 153.990 106.015 157.532 106.015 C157.994 106.015 158.368 106.391 158.368 106.855 C158.369 112.544 158.369 118.234 158.368 123.922 C158.368 124.386 157.994 124.763 157.532 124.763 C153.990 124.763 150.448 124.763 146.907 124.763 C146.444 124.763 146.069 124.386 146.069 123.922 C146.069 118.234 146.069 112.544 146.069 106.855 zM147.743 107.696 C147.743 112.825 147.743 117.953 147.743 123.082 C150.727 123.082 153.711 123.082 156.694 123.082 C156.694 117.953 156.694 112.825 156.694 107.696 C153.711 107.696 150.727 107.696 147.743 107.696 z"
    fill="rgb(25,119,255)"/>
</svg>
